<?xml version="1.0" encoding="UTF-8" standalone="no"?><!-- Generator: Gravit.io --><svg xmlns="http://www.w3.org/2000/svg" xmlns:xlink="http://www.w3.org/1999/xlink" style="isolation:isolate" viewBox="0 0 448 512" width="448pt" height="512pt"><defs><clipPath id="_clipPath_RvRc8qcJpJSS3KZYf5J3xE5hBhu2Fp72"><rect width="448" height="512"/></clipPath></defs><g clip-path="url(#_clipPath_RvRc8qcJpJSS3KZYf5J3xE5hBhu2Fp72)"><path d=" M 358.6 328.8 C 379.1 308.6 395 283.7 404.8 256 L 416 256 C 424.8 256 432 248.8 432 240 L 432 144 C 432 135.2 424.8 128 416 128 L 404.8 128 C 378.5 53.5 307.6 0 224 0 C 140.4 0 69.5 53.5 43.2 128 L 32 128 C 23.2 128 16 135.2 16 144 L 16 240 C 16 248.8 23.2 256 32 256 L 43.2 256 C 53 283.7 68.9 308.6 89.4 328.8 C 37.4 347.3 0 396.1 0 454.4 L 0 488 C 0 501.3 10.7 512 24 512 C 37.3 512 48 501.3 48 488 L 48 454.4 C 48 406.8 86.8 368 134.4 368 L 147.4 368 C 170.9 378.2 196.8 384 224 384 C 251.2 384 277.1 378.2 300.6 368 L 313.6 368 C 361.2 368 400 406.8 400 454.4 L 400 488 C 400 501.3 410.7 512 424 512 C 437.3 512 448 501.3 448 488 L 448 454.4 C 448 396.1 410.6 347.3 358.6 328.8 L 358.6 328.8 Z  M 224 336 C 144.6 336 80 271.4 80 192 C 80 112.6 144.6 48 224 48 C 303.4 48 368 112.6 368 192 C 368 271.4 303.4 336 224 336 Z  M 304 416 L 144 416 C 126.3 416 112 430.3 112 448 L 112 512 L 160 512 L 160 464 C 160 455.2 167.2 448 176 448 C 184.8 448 192 455.2 192 464 L 192 512 L 336 512 L 336 448 C 336 430.3 321.7 416 304 416 Z  M 272 480 C 263.2 480 256 472.8 256 464 C 256 455.2 263.2 448 272 448 C 280.8 448 288 455.2 288 464 C 288 472.8 280.8 480 272 480 Z  M 288 128 L 160 128 C 133.5 128 112 149.5 112 176 L 112 192 C 112 245 155 288 208 288 L 240 288 C 293 288 336 245 336 192 L 336 176 C 336 149.5 314.5 128 288 128 Z  M 204 220 L 192 256 L 180 220 L 144 208 L 180 196 L 192 160 L 204 196 L 240 208 L 204 220 L 204 220 Z " fill="rgb(255,255,255)"/></g></svg>