<?xml version="1.0" encoding="UTF-8" standalone="no"?><!-- Generator: Gravit.io --><svg xmlns="http://www.w3.org/2000/svg" xmlns:xlink="http://www.w3.org/1999/xlink" style="isolation:isolate" viewBox="0 0 576 512" width="576pt" height="512pt"><defs><clipPath id="_clipPath_pUmcBjJUKYOH3BThNrL7c9U4yybOfGlg"><rect width="576" height="512"/></clipPath></defs><g clip-path="url(#_clipPath_pUmcBjJUKYOH3BThNrL7c9U4yybOfGlg)"><path d=" M 128 288 C 110.33 288 96 302.33 96 320 C 96 337.67 110.33 352 128 352 C 145.67 352 160 337.67 160 320 C 160 302.33 145.67 288 128 288 Z  M 282.65 190.92 L 298.89 142.21 C 300.05 138.76 302.07 135.86 303.81 132.78 C 299.08 130.02 293.87 128 288 128 C 270.33 128 256 142.33 256 160 C 256 175.78 267.63 188.29 282.65 190.92 Z  M 176 176 C 158.33 176 144 190.33 144 208 C 144 225.67 158.33 240 176 240 C 193.67 240 208 225.67 208 208 C 208 190.33 193.67 176 176 176 Z  M 288 32 C 128.94 32 0 160.94 0 320 C 0 372.8 14.25 422.26 39.06 464.8 C 44.67 474.42 55.36 480 66.5 480 L 509.5 480 C 520.64 480 531.33 474.42 536.94 464.8 C 561.75 422.26 576 372.8 576 320 C 576 160.94 447.06 32 288 32 Z  M 500.27 432 L 75.73 432 C 57.56 397.63 48 359.12 48 320 C 48 187.66 155.66 80 288 80 C 420.34 80 528 187.66 528 320 C 528 359.12 518.44 397.63 500.27 432 Z  M 416 320 C 416 337.67 430.33 352 448 352 C 465.67 352 480 337.67 480 320 C 480 302.33 465.67 288 448 288 C 430.33 288 416 302.33 416 320 Z  M 359.59 137.23 C 346.87 133 333.43 139.85 329.21 152.4 L 283.87 288.41 C 250.49 290.58 224 318.06 224 352 C 224 363.72 227.38 374.55 232.88 384 L 343.13 384 C 348.63 374.55 352.01 363.72 352.01 352 C 352.01 332.55 343.15 315.34 329.46 303.6 L 374.8 167.59 C 378.97 155.02 372.16 141.42 359.59 137.23 L 359.59 137.23 Z  M 432 208 C 432 192.2 420.34 179.67 405.28 177.07 C 405.21 177.28 405.21 177.5 405.14 177.72 L 385.64 236.21 C 390.01 238.45 394.75 240.01 400 240.01 C 417.67 240 432 225.67 432 208 L 432 208 Z " fill="rgb(255,255,255)"/></g></svg>